<mxfile host="app.diagrams.net" modified="2023-01-29T11:28:31.020Z" agent="5.0 (Windows NT 10.0; Win64; x64) AppleWebKit/537.36 (KHTML, like Gecko) Chrome/109.0.0.0 Safari/537.36" etag="WzsNnN5QOMLnXYVkaw7v" version="20.8.13" type="github">
  <diagram name="Page-1" id="mEbRqbfkhMWqJXP668s1">
    <mxGraphModel dx="1434" dy="788" grid="1" gridSize="10" guides="1" tooltips="1" connect="1" arrows="1" fold="1" page="1" pageScale="1" pageWidth="850" pageHeight="1100" background="#FFFFFF" math="0" shadow="0">
      <root>
        <mxCell id="0" />
        <mxCell id="1" parent="0" />
        <mxCell id="bAkMgFBpGPVjYzeQk-84-1" value="r" style="fontStyle=1;align=center;verticalAlign=top;childLayout=stackLayout;horizontal=1;horizontalStack=0;resizeParent=1;resizeParentMax=0;resizeLast=0;marginBottom=0;" parent="1" vertex="1">
          <mxGeometry x="200" y="144" width="150" height="106" as="geometry" />
        </mxCell>
        <mxCell id="bAkMgFBpGPVjYzeQk-84-2" value="&lt;b&gt;Front-end App/Client&lt;/b&gt;" style="html=1;align=left;spacingLeft=4;verticalAlign=top;strokeColor=none;fillColor=none;" parent="bAkMgFBpGPVjYzeQk-84-1" vertex="1">
          <mxGeometry width="150" height="40" as="geometry" />
        </mxCell>
        <mxCell id="bAkMgFBpGPVjYzeQk-84-3" value="" style="shape=module;jettyWidth=10;jettyHeight=4;" parent="bAkMgFBpGPVjYzeQk-84-2" vertex="1">
          <mxGeometry x="1" width="16" height="20" relative="1" as="geometry">
            <mxPoint x="-20" y="10" as="offset" />
          </mxGeometry>
        </mxCell>
        <mxCell id="bAkMgFBpGPVjYzeQk-84-4" value="" style="line;strokeWidth=1;fillColor=none;align=left;verticalAlign=middle;spacingTop=-1;spacingLeft=3;spacingRight=3;rotatable=0;labelPosition=right;points=[];portConstraint=eastwest;" parent="bAkMgFBpGPVjYzeQk-84-1" vertex="1">
          <mxGeometry y="40" width="150" height="8" as="geometry" />
        </mxCell>
        <mxCell id="bAkMgFBpGPVjYzeQk-84-5" value="Router" style="html=1;align=center;spacingLeft=4;verticalAlign=top;strokeColor=none;fillColor=none;" parent="bAkMgFBpGPVjYzeQk-84-1" vertex="1">
          <mxGeometry y="48" width="150" height="25" as="geometry" />
        </mxCell>
        <mxCell id="bAkMgFBpGPVjYzeQk-84-7" value="" style="line;strokeWidth=1;fillColor=none;align=left;verticalAlign=middle;spacingTop=-1;spacingLeft=3;spacingRight=3;rotatable=0;labelPosition=right;points=[];portConstraint=eastwest;" parent="bAkMgFBpGPVjYzeQk-84-1" vertex="1">
          <mxGeometry y="73" width="150" height="8" as="geometry" />
        </mxCell>
        <mxCell id="bAkMgFBpGPVjYzeQk-84-8" value="Controller" style="html=1;align=center;spacingLeft=4;verticalAlign=top;strokeColor=none;fillColor=none;" parent="bAkMgFBpGPVjYzeQk-84-1" vertex="1">
          <mxGeometry y="81" width="150" height="25" as="geometry" />
        </mxCell>
        <mxCell id="bAkMgFBpGPVjYzeQk-84-11" value="Database" style="image;html=1;image=img/lib/clip_art/computers/Database_128x128.png" parent="1" vertex="1">
          <mxGeometry x="630" y="163.25" width="80" height="80" as="geometry" />
        </mxCell>
        <mxCell id="bAkMgFBpGPVjYzeQk-84-12" value="RESTful API&amp;nbsp;&lt;br&gt;Backend" style="sketch=0;html=1;dashed=0;whitespace=wrap;fillColor=#2875E2;strokeColor=#ffffff;points=[[0.005,0.63,0],[0.1,0.2,0],[0.9,0.2,0],[0.5,0,0],[0.995,0.63,0],[0.72,0.99,0],[0.5,1,0],[0.28,0.99,0]];verticalLabelPosition=bottom;align=center;verticalAlign=top;shape=mxgraph.kubernetes.icon;prIcon=api" parent="1" vertex="1">
          <mxGeometry x="425" y="140" width="110" height="100" as="geometry" />
        </mxCell>
        <mxCell id="bAkMgFBpGPVjYzeQk-84-15" value="HTTP" style="endArrow=classic;startArrow=classic;html=1;rounded=0;exitX=1;exitY=0.5;exitDx=0;exitDy=0;entryX=0.005;entryY=0.63;entryDx=0;entryDy=0;entryPerimeter=0;strokeWidth=2;" parent="1" source="bAkMgFBpGPVjYzeQk-84-5" target="bAkMgFBpGPVjYzeQk-84-12" edge="1">
          <mxGeometry width="50" height="50" relative="1" as="geometry">
            <mxPoint x="370" y="243" as="sourcePoint" />
            <mxPoint x="420" y="193" as="targetPoint" />
          </mxGeometry>
        </mxCell>
        <mxCell id="bAkMgFBpGPVjYzeQk-84-16" value="CRUD&lt;br&gt;operation" style="endArrow=classic;startArrow=classic;html=1;rounded=0;exitX=0.995;exitY=0.63;exitDx=0;exitDy=0;exitPerimeter=0;entryX=0;entryY=0.5;entryDx=0;entryDy=0;strokeWidth=2;" parent="1" source="bAkMgFBpGPVjYzeQk-84-12" target="bAkMgFBpGPVjYzeQk-84-11" edge="1">
          <mxGeometry width="50" height="50" relative="1" as="geometry">
            <mxPoint x="580" y="230" as="sourcePoint" />
            <mxPoint x="630" y="180" as="targetPoint" />
          </mxGeometry>
        </mxCell>
        <mxCell id="bAkMgFBpGPVjYzeQk-84-18" value="User Machine" style="sketch=0;outlineConnect=0;fontColor=#232F3E;gradientColor=none;fillColor=#232F3D;strokeColor=none;dashed=0;verticalLabelPosition=bottom;verticalAlign=top;align=center;html=1;fontSize=12;fontStyle=0;aspect=fixed;pointerEvents=1;shape=mxgraph.aws4.client;" parent="1" vertex="1">
          <mxGeometry x="90" y="163.25" width="69.28" height="67.5" as="geometry" />
        </mxCell>
        <mxCell id="bAkMgFBpGPVjYzeQk-84-22" value="" style="endArrow=classic;startArrow=classic;html=1;rounded=0;exitX=1;exitY=0.504;exitDx=0;exitDy=0;exitPerimeter=0;entryX=0;entryY=0.25;entryDx=0;entryDy=0;strokeWidth=2;" parent="1" source="bAkMgFBpGPVjYzeQk-84-18" target="bAkMgFBpGPVjYzeQk-84-5" edge="1">
          <mxGeometry width="50" height="50" relative="1" as="geometry">
            <mxPoint x="130" y="240" as="sourcePoint" />
            <mxPoint x="180" y="190" as="targetPoint" />
          </mxGeometry>
        </mxCell>
      </root>
    </mxGraphModel>
  </diagram>
</mxfile>
